<svg width="888" height="877" viewBox="0 0 888 877" fill="none" xmlns="http://www.w3.org/2000/svg">
<path d="M887.772 763.25L252.263 772.831L0 728.121H393.817L887.772 763.25Z" fill="#E6E6E6"/>
<path d="M179.84 733.435C179.84 733.435 181.327 702.276 211.812 705.898Z" fill="#3F3D56"/>
<path d="M171.227 703.784C179.653 703.784 186.484 696.953 186.484 688.526C186.484 680.1 179.653 673.269 171.227 673.269C162.801 673.269 155.97 680.1 155.97 688.526C155.97 696.953 162.801 703.784 171.227 703.784Z" fill="#EF7576"/>
<path d="M173.051 714.219H168.744V744.366H173.051V714.219Z" fill="#3F3D56"/>
<path d="M682.287 738.757C682.287 738.757 683.774 707.599 714.258 711.22Z" fill="#3F3D56"/>
<path d="M673.673 709.106C682.099 709.106 688.93 702.275 688.93 693.849C688.93 685.423 682.099 678.592 673.673 678.592C665.247 678.592 658.416 685.423 658.416 693.849C658.416 702.275 665.247 709.106 673.673 709.106Z" fill="#EF7576"/>
<path d="M675.498 719.541H671.191V749.688H675.498V719.541Z" fill="#3F3D56"/>
<path d="M755.738 744.08C755.738 744.08 757.225 712.921 787.709 716.543Z" fill="#3F3D56"/>
<path d="M747.124 714.429C755.551 714.429 762.381 707.598 762.381 699.171C762.381 690.745 755.551 683.914 747.124 683.914C738.698 683.914 731.867 690.745 731.867 699.171C731.867 707.598 738.698 714.429 747.124 714.429Z" fill="#EF7576"/>
<path d="M748.948 724.864H744.642V755.011H748.948V724.864Z" fill="#3F3D56"/>
<path d="M300.129 718.532C300.129 718.532 301.616 687.373 332.101 690.995Z" fill="#3F3D56"/>
<path d="M291.516 688.88C299.942 688.88 306.773 682.05 306.773 673.623C306.773 665.197 299.942 658.366 291.516 658.366C283.09 658.366 276.259 665.197 276.259 673.623C276.259 682.05 283.09 688.88 291.516 688.88Z" fill="#EF7576"/>
<path d="M293.34 699.315H289.033V729.462H293.34V699.315Z" fill="#3F3D56"/>
<path d="M73.3896 723.854C73.3896 723.854 74.8766 692.696 105.361 696.317Z" fill="#3F3D56"/>
<path d="M64.7762 694.203C73.2024 694.203 80.0333 687.372 80.0333 678.946C80.0333 670.52 73.2024 663.689 64.7762 663.689C56.3499 663.689 49.519 670.52 49.519 678.946C49.519 687.372 56.3499 694.203 64.7762 694.203Z" fill="#EF7576"/>
<path d="M66.6007 704.638H62.2939V734.785H66.6007V704.638Z" fill="#3F3D56"/>
<path d="M442.277 669.71C534.082 669.71 608.505 595.287 608.505 503.482C608.505 411.677 534.082 337.254 442.277 337.254C350.472 337.254 276.049 411.677 276.049 503.482C276.049 595.287 350.472 669.71 442.277 669.71Z" fill="#3F3D56"/>
<path d="M337.626 516.826C341.754 511.883 346.917 507.908 352.751 505.18C358.584 502.451 364.946 501.037 371.385 501.037C377.825 501.037 384.186 502.451 390.02 505.18C395.853 507.908 401.016 511.883 405.145 516.826C412.209 510.082 417.092 501.377 419.163 491.833C421.235 482.289 420.401 472.343 416.768 463.278C413.136 454.212 406.872 446.442 398.783 440.969C390.694 435.496 381.152 432.571 371.385 432.571C361.619 432.571 352.077 435.496 343.988 440.969C335.899 446.442 329.635 454.212 326.002 463.278C322.37 472.343 321.536 482.289 323.607 491.833C325.679 501.377 330.562 510.082 337.626 516.826V516.826Z" fill="white"/>
<path d="M469.631 516.826C473.759 511.883 478.922 507.908 484.756 505.179C490.589 502.451 496.95 501.037 503.39 501.037C509.83 501.037 516.191 502.451 522.025 505.179C527.858 507.908 533.021 511.883 537.15 516.826C544.214 510.082 549.096 501.377 551.168 491.833C553.24 482.289 552.406 472.343 548.773 463.278C545.141 454.212 538.876 446.442 530.788 440.969C522.699 435.496 513.156 432.571 503.39 432.571C493.624 432.571 484.081 435.496 475.993 440.969C467.904 446.442 461.64 454.212 458.007 463.278C454.375 472.343 453.54 482.289 455.612 491.833C457.684 501.377 462.567 510.082 469.631 516.826Z" fill="white"/>
<path d="M387.818 481.636C397.106 481.636 404.636 474.106 404.636 464.818C404.636 455.53 397.106 448 387.818 448C378.53 448 371 455.53 371 464.818C371 474.106 378.53 481.636 387.818 481.636Z" fill="#3F3D56"/>
<path d="M523.818 481.636C533.106 481.636 540.636 474.106 540.636 464.818C540.636 455.53 533.106 448 523.818 448C514.53 448 507 455.53 507 464.818C507 474.106 514.53 481.636 523.818 481.636Z" fill="#3F3D56"/>
<path d="M322.495 564.595C333.295 564.595 342.051 555.84 342.051 545.039C342.051 534.238 333.295 525.483 322.495 525.483C311.694 525.483 302.938 534.238 302.938 545.039C302.938 555.84 311.694 564.595 322.495 564.595Z" fill="#FF6584"/>
<path d="M547.392 564.595C558.192 564.595 566.948 555.84 566.948 545.039C566.948 534.238 558.192 525.483 547.392 525.483C536.591 525.483 527.835 534.238 527.835 545.039C527.835 555.84 536.591 564.595 547.392 564.595Z" fill="#FF6584"/>
<path d="M434.943 505.926L420.276 569.484L444.721 545.039L434.943 505.926Z" fill="#FF6584"/>
<path d="M510.307 750.38L493.655 736.404L494.043 750.38H488.871L488.458 735.602L465.975 750.38H456.563L488.29 729.526L487.061 685.737L486.143 652.666L491.302 652.524L492.233 685.737L493.461 729.487L518.348 750.38H510.307Z" fill="#3F3D56"/>
<path d="M432.076 750.38L415.424 736.404L415.812 750.38H410.654L410.24 735.602L387.757 750.38H378.345L410.059 729.526L408.831 685.737L407.913 652.666L413.084 652.524L414.015 685.737L415.23 729.487L440.118 750.38H432.076Z" fill="#3F3D56"/>
<path d="M444.722 325.031C440.16 325.031 436.137 328.574 433.447 334.016C431.076 325.833 426.094 320.142 420.276 320.142C419.881 320.181 419.489 320.247 419.102 320.339C416.866 311.602 411.669 305.475 405.609 305.475C397.509 305.475 390.942 316.419 390.942 329.92C390.942 343.421 397.509 354.366 405.609 354.366C406.004 354.326 406.397 354.26 406.783 354.168C409.02 362.905 414.217 369.033 420.276 369.033C424.837 369.033 428.861 365.49 431.551 360.048C433.922 368.231 438.904 373.922 444.722 373.922C452.822 373.922 459.389 362.977 459.389 349.476C459.389 335.976 452.822 325.031 444.722 325.031Z" fill="#3F3D56"/>
<path d="M286.25 566.475C279.83 566.475 273.473 565.21 267.541 562.754C261.609 560.297 256.22 556.695 251.68 552.155C247.14 547.615 243.538 542.226 241.081 536.294C238.624 530.362 237.36 524.005 237.36 517.584V493.139C237.36 480.172 242.511 467.737 251.68 458.568C260.848 449.399 273.284 444.248 286.25 444.248V444.248V566.475Z" fill="#EF7576"/>
<path d="M598.304 444.249C604.724 444.249 611.082 445.513 617.013 447.97C622.945 450.427 628.335 454.028 632.875 458.568C637.415 463.108 641.016 468.498 643.473 474.429C645.93 480.361 647.194 486.719 647.194 493.139V517.585C647.194 524.005 645.93 530.362 643.473 536.294C641.016 542.226 637.415 547.616 632.875 552.155C628.335 556.695 622.945 560.297 617.013 562.754C611.082 565.211 604.724 566.475 598.304 566.475V566.475V444.249H598.304Z" fill="#EF7576"/>
<path d="M623.923 496.98H616.166C616.166 398.603 536.13 318.567 437.752 318.567C339.375 318.567 259.338 398.603 259.338 496.98H251.581C251.581 394.325 335.097 310.81 437.752 310.81C540.408 310.81 623.923 394.325 623.923 496.98Z" fill="#EF7576"/>
<path d="M171.547 347.473L171.549 347.47L167.904 345.953L152.528 339.452L147.016 337.123L146.593 338.19L139.189 356.884L160.026 365.704L160.136 365.803L158.731 369.114C158.539 369.416 158.375 369.736 158.242 370.069C157.258 372.553 159.116 375.023 160.872 375.718C162.628 376.414 164.849 374.965 165.833 372.481C166.803 370.031 165.855 366.919 164.143 366.167L164.145 366.164L160.501 364.647L148.034 359.8L155.157 341.815L154.101 341.397L146.976 359.389L145.434 358.79L152.588 340.728L152.776 340.807L167.43 347.01L167.539 347.109L166.135 350.419C165.943 350.722 165.779 351.042 165.646 351.375C164.662 353.858 166.52 356.329 168.276 357.024C170.032 357.72 172.253 356.271 173.237 353.787C174.207 351.337 173.259 348.225 171.547 347.473Z" fill="#3F3D56"/>
<path d="M243.667 393.367C236.103 389.043 237.617 379.552 237.617 379.552C237.427 373.387 232.333 374.26 232.333 374.26L230.479 374.683C229.618 374.283 228.67 374.108 227.723 374.173L224.902 374.648C231.324 376.156 230.796 381.528 230.796 381.528L231.696 387.809L214.87 381.021L216.802 376.466C217.069 376.046 217.297 375.602 217.482 375.139C218.849 371.69 216.268 368.259 213.829 367.293C211.39 366.327 208.305 368.34 206.939 371.789C205.592 375.192 206.908 379.514 209.285 380.558L209.283 380.562L214.345 382.67L214.383 382.551L243.667 393.367ZM235.123 382.331L235.663 388.343C233.757 385.67 232.862 382.408 233.137 379.137C233.092 377.973 232.7 376.85 232.01 375.911C233.07 376.591 233.922 377.55 234.471 378.683C235.021 379.816 235.246 381.078 235.123 382.331V382.331Z" fill="#3F3D56"/>
<path d="M115.319 304.456L115.321 304.452L110.259 302.344L89.1047 294.121L94.444 289.37C95.4885 287.978 97.0309 287.043 98.7487 286.762C100.467 286.48 102.227 286.874 103.661 287.86L102.004 285.398C102.004 285.398 98.8891 281.274 94.5289 285.637C94.5289 285.637 89.1341 293.59 80.6602 291.563L109.6 303.812L109.752 303.95L107.802 308.548C107.535 308.969 107.307 309.413 107.122 309.875C105.756 313.324 108.336 316.755 110.775 317.722C113.214 318.688 116.299 316.674 117.665 313.225C119.013 309.823 117.696 305.5 115.319 304.456Z" fill="#3F3D56"/>
<path d="M192.766 277.541L190.816 282.14C190.549 282.56 190.321 283.004 190.135 283.467C188.769 286.916 191.349 290.347 193.789 291.313C196.228 292.279 199.313 290.266 200.679 286.817C202.026 283.414 200.709 279.092 198.332 278.048L198.335 278.044L193.273 275.936L175.958 269.205L185.851 244.225L184.385 243.644L174.488 268.633L172.347 267.801L182.282 242.714L182.544 242.825L202.897 251.439L203.049 251.577L201.099 256.175C200.832 256.596 200.604 257.04 200.419 257.502C199.052 260.952 201.633 264.383 204.072 265.349C206.511 266.315 209.596 264.302 210.962 260.852C212.31 257.45 210.993 253.128 208.616 252.083L208.618 252.079L203.556 249.971L182.871 241.227L182.87 241.227L182.2 240.943L174.544 237.707L163.674 265.155L192.614 277.404L192.766 277.541Z" fill="#3F3D56"/>
<path d="M101.053 136.972L101.057 136.965L92.3437 133.336L55.9275 119.18L65.1186 111.003C65.1186 111.003 71.2323 102.52 80.9848 108.403L78.1328 104.164C78.1328 104.164 72.7706 97.0655 65.265 104.576C65.265 104.576 55.9781 118.267 41.3906 114.777L91.2095 135.863L91.4711 136.1L88.114 144.016C87.6544 144.74 87.2623 145.505 86.9426 146.3C84.5909 152.238 89.0325 158.145 93.2314 159.808C97.4303 161.471 102.741 158.005 105.093 152.067C107.412 146.21 105.145 138.77 101.053 136.972Z" fill="#3F3D56"/>
<path d="M127.793 255.885C109.709 245.545 113.328 222.855 113.328 222.855C112.873 208.114 100.694 210.201 100.694 210.201L96.2614 211.212C94.2024 210.257 91.9351 209.837 89.6705 209.993L82.928 211.128C98.281 214.736 97.0196 227.579 97.0196 227.579L99.1705 242.596L58.9415 226.367L63.5605 215.476C64.1988 214.471 64.7434 213.409 65.1875 212.303C68.4538 204.056 62.2847 195.853 56.4528 193.543C50.6209 191.233 43.2454 196.047 39.979 204.294C36.7572 212.428 39.9058 222.763 45.5889 225.26L45.5841 225.27L57.6858 230.309L57.776 230.024L127.793 255.885ZM107.364 229.499L108.659 243.923C101.063 233.84 102.616 221.861 102.616 221.861C102.509 219.079 101.57 216.393 99.9216 214.15C108.647 219.371 107.364 229.499 107.364 229.499H107.364Z" fill="#3F3D56"/>
<path d="M313.5 823H310.224L297.048 803.02V823H293.772V797.872H297.048L310.224 817.816V797.872H313.5V823ZM327.689 823.324C325.841 823.324 324.161 822.904 322.649 822.064C321.161 821.224 319.985 820.036 319.121 818.5C318.281 816.94 317.861 815.14 317.861 813.1C317.861 811.084 318.293 809.308 319.157 807.772C320.045 806.212 321.245 805.024 322.757 804.208C324.269 803.368 325.961 802.948 327.833 802.948C329.705 802.948 331.397 803.368 332.909 804.208C334.421 805.024 335.609 806.2 336.473 807.736C337.361 809.272 337.805 811.06 337.805 813.1C337.805 815.14 337.349 816.94 336.437 818.5C335.549 820.036 334.337 821.224 332.801 822.064C331.265 822.904 329.561 823.324 327.689 823.324ZM327.689 820.444C328.865 820.444 329.969 820.168 331.001 819.616C332.033 819.064 332.861 818.236 333.485 817.132C334.133 816.028 334.457 814.684 334.457 813.1C334.457 811.516 334.145 810.172 333.521 809.068C332.897 807.964 332.081 807.148 331.073 806.62C330.065 806.068 328.973 805.792 327.797 805.792C326.597 805.792 325.493 806.068 324.485 806.62C323.501 807.148 322.709 807.964 322.109 809.068C321.509 810.172 321.209 811.516 321.209 813.1C321.209 814.708 321.497 816.064 322.073 817.168C322.673 818.272 323.465 819.1 324.449 819.652C325.433 820.18 326.513 820.444 327.689 820.444ZM350.486 813.1C350.486 811.06 350.894 809.284 351.71 807.772C352.526 806.236 353.654 805.048 355.094 804.208C356.558 803.368 358.226 802.948 360.098 802.948C362.522 802.948 364.514 803.536 366.074 804.712C367.658 805.888 368.702 807.52 369.206 809.608H365.678C365.342 808.408 364.682 807.46 363.698 806.764C362.738 806.068 361.538 805.72 360.098 805.72C358.226 805.72 356.714 806.368 355.562 807.664C354.41 808.936 353.834 810.748 353.834 813.1C353.834 815.476 354.41 817.312 355.562 818.608C356.714 819.904 358.226 820.552 360.098 820.552C361.538 820.552 362.738 820.216 363.698 819.544C364.658 818.872 365.318 817.912 365.678 816.664H369.206C368.678 818.68 367.622 820.3 366.038 821.524C364.454 822.724 362.474 823.324 360.098 823.324C358.226 823.324 356.558 822.904 355.094 822.064C353.654 821.224 352.526 820.036 351.71 818.5C350.894 816.964 350.486 815.164 350.486 813.1ZM382.181 823.324C380.333 823.324 378.653 822.904 377.141 822.064C375.653 821.224 374.477 820.036 373.613 818.5C372.773 816.94 372.353 815.14 372.353 813.1C372.353 811.084 372.785 809.308 373.649 807.772C374.537 806.212 375.737 805.024 377.249 804.208C378.761 803.368 380.453 802.948 382.325 802.948C384.197 802.948 385.889 803.368 387.401 804.208C388.913 805.024 390.101 806.2 390.965 807.736C391.853 809.272 392.297 811.06 392.297 813.1C392.297 815.14 391.841 816.94 390.929 818.5C390.041 820.036 388.829 821.224 387.293 822.064C385.757 822.904 384.053 823.324 382.181 823.324ZM382.181 820.444C383.357 820.444 384.461 820.168 385.493 819.616C386.525 819.064 387.353 818.236 387.977 817.132C388.625 816.028 388.949 814.684 388.949 813.1C388.949 811.516 388.637 810.172 388.013 809.068C387.389 807.964 386.573 807.148 385.565 806.62C384.557 806.068 383.465 805.792 382.289 805.792C381.089 805.792 379.985 806.068 378.977 806.62C377.993 807.148 377.201 807.964 376.601 809.068C376.001 810.172 375.701 811.516 375.701 813.1C375.701 814.708 375.989 816.064 376.565 817.168C377.165 818.272 377.957 819.1 378.941 819.652C379.925 820.18 381.005 820.444 382.181 820.444ZM406.216 802.912C408.616 802.912 410.56 803.644 412.048 805.108C413.536 806.548 414.28 808.636 414.28 811.372V823H411.04V811.84C411.04 809.872 410.548 808.372 409.564 807.34C408.58 806.284 407.236 805.756 405.532 805.756C403.804 805.756 402.424 806.296 401.392 807.376C400.384 808.456 399.88 810.028 399.88 812.092V823H396.604V803.272H399.88V806.08C400.528 805.072 401.404 804.292 402.508 803.74C403.636 803.188 404.872 802.912 406.216 802.912ZM423.627 805.972V817.6C423.627 818.56 423.831 819.244 424.239 819.652C424.647 820.036 425.355 820.228 426.363 820.228H428.775V823H425.823C423.999 823 422.631 822.58 421.719 821.74C420.807 820.9 420.351 819.52 420.351 817.6V805.972H417.795V803.272H420.351V798.304H423.627V803.272H428.775V805.972H423.627ZM450.745 812.38C450.745 813.004 450.709 813.664 450.637 814.36H434.869C434.989 816.304 435.649 817.828 436.849 818.932C438.073 820.012 439.549 820.552 441.277 820.552C442.693 820.552 443.869 820.228 444.805 819.58C445.765 818.908 446.437 818.02 446.821 816.916H450.349C449.821 818.812 448.765 820.36 447.181 821.56C445.597 822.736 443.629 823.324 441.277 823.324C439.405 823.324 437.725 822.904 436.237 822.064C434.773 821.224 433.621 820.036 432.781 818.5C431.941 816.94 431.521 815.14 431.521 813.1C431.521 811.06 431.929 809.272 432.745 807.736C433.561 806.2 434.701 805.024 436.165 804.208C437.653 803.368 439.357 802.948 441.277 802.948C443.149 802.948 444.805 803.356 446.245 804.172C447.685 804.988 448.789 806.116 449.557 807.556C450.349 808.972 450.745 810.58 450.745 812.38ZM447.361 811.696C447.361 810.448 447.085 809.38 446.533 808.492C445.981 807.58 445.225 806.896 444.265 806.44C443.329 805.96 442.285 805.72 441.133 805.72C439.477 805.72 438.061 806.248 436.885 807.304C435.733 808.36 435.073 809.824 434.905 811.696H447.361ZM464.681 802.912C467.081 802.912 469.025 803.644 470.513 805.108C472.001 806.548 472.745 808.636 472.745 811.372V823H469.505V811.84C469.505 809.872 469.013 808.372 468.029 807.34C467.045 806.284 465.701 805.756 463.997 805.756C462.269 805.756 460.889 806.296 459.857 807.376C458.849 808.456 458.345 810.028 458.345 812.092V823H455.069V803.272H458.345V806.08C458.993 805.072 459.869 804.292 460.973 803.74C462.101 803.188 463.337 802.912 464.681 802.912ZM482.092 805.972V817.6C482.092 818.56 482.296 819.244 482.704 819.652C483.112 820.036 483.82 820.228 484.828 820.228H487.24V823H484.288C482.464 823 481.096 822.58 480.184 821.74C479.272 820.9 478.816 819.52 478.816 817.6V805.972H476.26V803.272H478.816V798.304H482.092V803.272H487.24V805.972H482.092ZM508.835 805.972H504.695V823H501.419V805.972H498.863V803.272H501.419V801.868C501.419 799.66 501.983 798.052 503.111 797.044C504.263 796.012 506.099 795.496 508.619 795.496V798.232C507.179 798.232 506.159 798.52 505.559 799.096C504.983 799.648 504.695 800.572 504.695 801.868V803.272H508.835V805.972ZM521.259 823.324C519.411 823.324 517.731 822.904 516.219 822.064C514.731 821.224 513.555 820.036 512.691 818.5C511.851 816.94 511.431 815.14 511.431 813.1C511.431 811.084 511.863 809.308 512.727 807.772C513.615 806.212 514.815 805.024 516.327 804.208C517.839 803.368 519.531 802.948 521.403 802.948C523.275 802.948 524.967 803.368 526.479 804.208C527.991 805.024 529.179 806.2 530.043 807.736C530.931 809.272 531.375 811.06 531.375 813.1C531.375 815.14 530.919 816.94 530.007 818.5C529.119 820.036 527.907 821.224 526.371 822.064C524.835 822.904 523.131 823.324 521.259 823.324ZM521.259 820.444C522.435 820.444 523.539 820.168 524.571 819.616C525.603 819.064 526.431 818.236 527.055 817.132C527.703 816.028 528.027 814.684 528.027 813.1C528.027 811.516 527.715 810.172 527.091 809.068C526.467 807.964 525.651 807.148 524.643 806.62C523.635 806.068 522.543 805.792 521.367 805.792C520.167 805.792 519.063 806.068 518.055 806.62C517.071 807.148 516.279 807.964 515.679 809.068C515.079 810.172 514.779 811.516 514.779 813.1C514.779 814.708 515.067 816.064 515.643 817.168C516.243 818.272 517.035 819.1 518.019 819.652C519.003 820.18 520.083 820.444 521.259 820.444ZM553.178 803.272V823H549.902V820.084C549.278 821.092 548.402 821.884 547.274 822.46C546.17 823.012 544.946 823.288 543.602 823.288C542.066 823.288 540.686 822.976 539.462 822.352C538.238 821.704 537.266 820.744 536.546 819.472C535.85 818.2 535.502 816.652 535.502 814.828V803.272H538.742V814.396C538.742 816.34 539.234 817.84 540.218 818.896C541.202 819.928 542.546 820.444 544.25 820.444C546.002 820.444 547.382 819.904 548.39 818.824C549.398 817.744 549.902 816.172 549.902 814.108V803.272H553.178ZM568.322 802.912C570.722 802.912 572.666 803.644 574.154 805.108C575.642 806.548 576.386 808.636 576.386 811.372V823H573.146V811.84C573.146 809.872 572.654 808.372 571.67 807.34C570.686 806.284 569.342 805.756 567.638 805.756C565.91 805.756 564.53 806.296 563.498 807.376C562.49 808.456 561.986 810.028 561.986 812.092V823H558.71V803.272H561.986V806.08C562.634 805.072 563.51 804.292 564.614 803.74C565.742 803.188 566.978 802.912 568.322 802.912ZM580.513 813.064C580.513 811.048 580.921 809.284 581.737 807.772C582.553 806.236 583.669 805.048 585.085 804.208C586.525 803.368 588.133 802.948 589.909 802.948C591.445 802.948 592.873 803.308 594.193 804.028C595.513 804.724 596.521 805.648 597.217 806.8V796.36H600.529V823H597.217V819.292C596.569 820.468 595.609 821.44 594.337 822.208C593.065 822.952 591.577 823.324 589.873 823.324C588.121 823.324 586.525 822.892 585.085 822.028C583.669 821.164 582.553 819.952 581.737 818.392C580.921 816.832 580.513 815.056 580.513 813.064ZM597.217 813.1C597.217 811.612 596.917 810.316 596.317 809.212C595.717 808.108 594.901 807.268 593.869 806.692C592.861 806.092 591.745 805.792 590.521 805.792C589.297 805.792 588.181 806.08 587.173 806.656C586.165 807.232 585.361 808.072 584.761 809.176C584.161 810.28 583.861 811.576 583.861 813.064C583.861 814.576 584.161 815.896 584.761 817.024C585.361 818.128 586.165 818.98 587.173 819.58C588.181 820.156 589.297 820.444 590.521 820.444C591.745 820.444 592.861 820.156 593.869 819.58C594.901 818.98 595.717 818.128 596.317 817.024C596.917 815.896 597.217 814.588 597.217 813.1Z" fill="#3F3D56"/>
</svg>
