<svg width="888" height="877" viewBox="0 0 888 877" fill="none" xmlns="http://www.w3.org/2000/svg">
<path d="M887.772 763.25L252.263 772.831L0 728.121H393.817L887.772 763.25Z" fill="#E6E6E6"/>
<path d="M179.84 733.435C179.84 733.435 181.327 702.276 211.812 705.898Z" fill="#3F3D56"/>
<path d="M171.227 703.784C179.653 703.784 186.484 696.953 186.484 688.526C186.484 680.1 179.653 673.269 171.227 673.269C162.801 673.269 155.97 680.1 155.97 688.526C155.97 696.953 162.801 703.784 171.227 703.784Z" fill="#EF7576"/>
<path d="M173.051 714.219H168.744V744.366H173.051V714.219Z" fill="#3F3D56"/>
<path d="M682.287 738.757C682.287 738.757 683.774 707.599 714.258 711.22Z" fill="#3F3D56"/>
<path d="M673.673 709.106C682.099 709.106 688.93 702.275 688.93 693.849C688.93 685.423 682.099 678.592 673.673 678.592C665.247 678.592 658.416 685.423 658.416 693.849C658.416 702.275 665.247 709.106 673.673 709.106Z" fill="#EF7576"/>
<path d="M675.498 719.541H671.191V749.688H675.498V719.541Z" fill="#3F3D56"/>
<path d="M755.738 744.08C755.738 744.08 757.225 712.921 787.709 716.543Z" fill="#3F3D56"/>
<path d="M747.124 714.429C755.551 714.429 762.381 707.598 762.381 699.171C762.381 690.745 755.551 683.914 747.124 683.914C738.698 683.914 731.867 690.745 731.867 699.171C731.867 707.598 738.698 714.429 747.124 714.429Z" fill="#EF7576"/>
<path d="M748.948 724.864H744.642V755.011H748.948V724.864Z" fill="#3F3D56"/>
<path d="M300.129 718.532C300.129 718.532 301.616 687.373 332.101 690.995Z" fill="#3F3D56"/>
<path d="M291.516 688.88C299.942 688.88 306.773 682.05 306.773 673.623C306.773 665.197 299.942 658.366 291.516 658.366C283.09 658.366 276.259 665.197 276.259 673.623C276.259 682.05 283.09 688.88 291.516 688.88Z" fill="#EF7576"/>
<path d="M293.34 699.315H289.033V729.462H293.34V699.315Z" fill="#3F3D56"/>
<path d="M73.3896 723.854C73.3896 723.854 74.8766 692.696 105.361 696.317Z" fill="#3F3D56"/>
<path d="M64.7762 694.203C73.2024 694.203 80.0333 687.372 80.0333 678.946C80.0333 670.52 73.2024 663.689 64.7762 663.689C56.3499 663.689 49.519 670.52 49.519 678.946C49.519 687.372 56.3499 694.203 64.7762 694.203Z" fill="#EF7576"/>
<path d="M66.6007 704.638H62.2939V734.785H66.6007V704.638Z" fill="#3F3D56"/>
<path d="M442.277 669.71C534.082 669.71 608.505 595.287 608.505 503.482C608.505 411.677 534.082 337.254 442.277 337.254C350.472 337.254 276.049 411.677 276.049 503.482C276.049 595.287 350.472 669.71 442.277 669.71Z" fill="#3F3D56"/>
<path d="M337.626 516.826C341.754 511.883 346.917 507.908 352.751 505.18C358.584 502.451 364.946 501.037 371.385 501.037C377.825 501.037 384.186 502.451 390.02 505.18C395.853 507.908 401.016 511.883 405.145 516.826C412.209 510.082 417.092 501.377 419.163 491.833C421.235 482.289 420.401 472.343 416.768 463.278C413.136 454.212 406.872 446.442 398.783 440.969C390.694 435.496 381.152 432.571 371.385 432.571C361.619 432.571 352.077 435.496 343.988 440.969C335.899 446.442 329.635 454.212 326.002 463.278C322.37 472.343 321.536 482.289 323.607 491.833C325.679 501.377 330.562 510.082 337.626 516.826V516.826Z" fill="white"/>
<path d="M469.631 516.826C473.759 511.883 478.922 507.908 484.756 505.179C490.589 502.451 496.95 501.037 503.39 501.037C509.83 501.037 516.191 502.451 522.025 505.179C527.858 507.908 533.021 511.883 537.15 516.826C544.214 510.082 549.096 501.377 551.168 491.833C553.24 482.289 552.406 472.343 548.773 463.278C545.141 454.212 538.876 446.442 530.788 440.969C522.699 435.496 513.156 432.571 503.39 432.571C493.624 432.571 484.081 435.496 475.993 440.969C467.904 446.442 461.64 454.212 458.007 463.278C454.375 472.343 453.54 482.289 455.612 491.833C457.684 501.377 462.567 510.082 469.631 516.826Z" fill="white"/>
<path d="M354.708 481.632C363.996 481.632 371.525 474.102 371.525 464.814C371.525 455.526 363.996 447.996 354.708 447.996C345.419 447.996 337.89 455.526 337.89 464.814C337.89 474.102 345.419 481.632 354.708 481.632Z" fill="#3F3D56"/>
<path d="M486.708 481.632C495.996 481.632 503.525 474.102 503.525 464.814C503.525 455.526 495.996 447.996 486.708 447.996C477.419 447.996 469.89 455.526 469.89 464.814C469.89 474.102 477.419 481.632 486.708 481.632Z" fill="#3F3D56"/>
<path d="M322.495 564.595C333.295 564.595 342.051 555.84 342.051 545.039C342.051 534.238 333.295 525.483 322.495 525.483C311.694 525.483 302.938 534.238 302.938 545.039C302.938 555.84 311.694 564.595 322.495 564.595Z" fill="#FF6584"/>
<path d="M547.392 564.595C558.192 564.595 566.948 555.84 566.948 545.039C566.948 534.238 558.192 525.483 547.392 525.483C536.591 525.483 527.835 534.238 527.835 545.039C527.835 555.84 536.591 564.595 547.392 564.595Z" fill="#FF6584"/>
<path d="M434.943 505.926L420.276 569.484L444.721 545.039L434.943 505.926Z" fill="#FF6584"/>
<path d="M510.307 750.38L493.655 736.404L494.043 750.38H488.871L488.458 735.602L465.975 750.38H456.563L488.29 729.526L487.061 685.737L486.143 652.666L491.302 652.524L492.233 685.737L493.461 729.487L518.348 750.38H510.307Z" fill="#3F3D56"/>
<path d="M432.076 750.38L415.424 736.404L415.812 750.38H410.654L410.24 735.602L387.757 750.38H378.345L410.059 729.526L408.831 685.737L407.913 652.666L413.084 652.524L414.015 685.737L415.23 729.487L440.118 750.38H432.076Z" fill="#3F3D56"/>
<path d="M444.722 325.031C440.16 325.031 436.137 328.574 433.447 334.016C431.076 325.833 426.094 320.142 420.276 320.142C419.881 320.181 419.489 320.247 419.102 320.339C416.866 311.602 411.669 305.475 405.609 305.475C397.509 305.475 390.942 316.419 390.942 329.92C390.942 343.421 397.509 354.366 405.609 354.366C406.004 354.326 406.397 354.26 406.783 354.168C409.02 362.905 414.217 369.033 420.276 369.033C424.837 369.033 428.861 365.49 431.551 360.048C433.922 368.231 438.904 373.922 444.722 373.922C452.822 373.922 459.389 362.977 459.389 349.476C459.389 335.976 452.822 325.031 444.722 325.031Z" fill="#3F3D56"/>
<path d="M286.25 566.475C279.83 566.475 273.473 565.21 267.541 562.754C261.609 560.297 256.22 556.695 251.68 552.155C247.14 547.615 243.538 542.226 241.081 536.294C238.624 530.362 237.36 524.005 237.36 517.584V493.139C237.36 480.172 242.511 467.737 251.68 458.568C260.848 449.399 273.284 444.248 286.25 444.248V444.248V566.475Z" fill="#EF7576"/>
<path d="M598.304 444.249C604.724 444.249 611.082 445.513 617.013 447.97C622.945 450.427 628.335 454.028 632.875 458.568C637.415 463.108 641.016 468.498 643.473 474.429C645.93 480.361 647.194 486.719 647.194 493.139V517.585C647.194 524.005 645.93 530.362 643.473 536.294C641.016 542.226 637.415 547.616 632.875 552.155C628.335 556.695 622.945 560.297 617.013 562.754C611.082 565.211 604.724 566.475 598.304 566.475V566.475V444.249H598.304Z" fill="#EF7576"/>
<path d="M623.923 496.98H616.166C616.166 398.603 536.13 318.567 437.752 318.567C339.375 318.567 259.338 398.603 259.338 496.98H251.581C251.581 394.325 335.097 310.81 437.752 310.81C540.408 310.81 623.923 394.325 623.923 496.98Z" fill="#EF7576"/>
<path d="M171.547 347.473L171.549 347.47L167.904 345.953L152.528 339.452L147.016 337.123L146.593 338.19L139.189 356.884L160.026 365.704L160.136 365.803L158.731 369.114C158.539 369.416 158.375 369.736 158.242 370.069C157.258 372.553 159.116 375.023 160.872 375.718C162.628 376.414 164.849 374.965 165.833 372.481C166.803 370.031 165.855 366.919 164.143 366.167L164.145 366.164L160.501 364.647L148.034 359.8L155.157 341.815L154.101 341.397L146.976 359.389L145.434 358.79L152.588 340.728L152.776 340.807L167.43 347.01L167.539 347.109L166.135 350.419C165.943 350.722 165.779 351.042 165.646 351.375C164.662 353.858 166.52 356.329 168.276 357.024C170.032 357.72 172.253 356.271 173.237 353.787C174.207 351.337 173.259 348.225 171.547 347.473Z" fill="#3F3D56"/>
<path d="M243.667 393.367C236.103 389.043 237.617 379.552 237.617 379.552C237.427 373.387 232.333 374.26 232.333 374.26L230.479 374.683C229.618 374.283 228.67 374.108 227.723 374.173L224.902 374.648C231.324 376.156 230.796 381.528 230.796 381.528L231.696 387.809L214.87 381.021L216.802 376.466C217.069 376.046 217.297 375.602 217.482 375.139C218.849 371.69 216.268 368.259 213.829 367.293C211.39 366.327 208.305 368.34 206.939 371.789C205.592 375.192 206.908 379.514 209.285 380.558L209.283 380.562L214.345 382.67L214.383 382.551L243.667 393.367ZM235.123 382.331L235.663 388.343C233.757 385.67 232.862 382.408 233.137 379.137C233.092 377.973 232.7 376.85 232.01 375.911C233.07 376.591 233.922 377.55 234.471 378.683C235.021 379.816 235.246 381.078 235.123 382.331V382.331Z" fill="#3F3D56"/>
<path d="M115.319 304.456L115.321 304.452L110.259 302.344L89.1047 294.121L94.444 289.37C95.4885 287.978 97.0309 287.043 98.7487 286.762C100.467 286.48 102.227 286.874 103.661 287.86L102.004 285.398C102.004 285.398 98.8891 281.274 94.5289 285.637C94.5289 285.637 89.1341 293.59 80.6602 291.563L109.6 303.812L109.752 303.95L107.802 308.548C107.535 308.969 107.307 309.413 107.122 309.875C105.756 313.324 108.336 316.755 110.775 317.722C113.214 318.688 116.299 316.674 117.665 313.225C119.013 309.823 117.696 305.5 115.319 304.456Z" fill="#3F3D56"/>
<path d="M192.766 277.541L190.816 282.14C190.549 282.56 190.321 283.004 190.135 283.467C188.769 286.916 191.349 290.347 193.789 291.313C196.228 292.279 199.313 290.266 200.679 286.817C202.026 283.414 200.709 279.092 198.332 278.048L198.335 278.044L193.273 275.936L175.958 269.205L185.851 244.225L184.385 243.644L174.488 268.633L172.347 267.801L182.282 242.714L182.544 242.825L202.897 251.439L203.049 251.577L201.099 256.175C200.832 256.596 200.604 257.04 200.419 257.502C199.052 260.952 201.633 264.383 204.072 265.349C206.511 266.315 209.596 264.302 210.962 260.852C212.31 257.45 210.993 253.128 208.616 252.083L208.618 252.079L203.556 249.971L182.871 241.227L182.87 241.227L182.2 240.943L174.544 237.707L163.674 265.155L192.614 277.404L192.766 277.541Z" fill="#3F3D56"/>
<path d="M101.053 136.972L101.057 136.965L92.3437 133.336L55.9275 119.18L65.1186 111.003C65.1186 111.003 71.2323 102.52 80.9848 108.403L78.1328 104.164C78.1328 104.164 72.7706 97.0655 65.265 104.576C65.265 104.576 55.9781 118.267 41.3906 114.777L91.2095 135.863L91.4711 136.1L88.114 144.016C87.6544 144.74 87.2623 145.505 86.9426 146.3C84.5909 152.238 89.0325 158.145 93.2314 159.808C97.4303 161.471 102.741 158.005 105.093 152.067C107.412 146.21 105.145 138.77 101.053 136.972Z" fill="#3F3D56"/>
<path d="M127.793 255.885C109.709 245.545 113.328 222.855 113.328 222.855C112.873 208.114 100.694 210.201 100.694 210.201L96.2614 211.212C94.2024 210.257 91.9351 209.837 89.6705 209.993L82.928 211.128C98.281 214.736 97.0196 227.579 97.0196 227.579L99.1705 242.596L58.9415 226.367L63.5605 215.476C64.1988 214.471 64.7434 213.409 65.1875 212.303C68.4538 204.056 62.2847 195.853 56.4528 193.543C50.6209 191.233 43.2454 196.047 39.979 204.294C36.7572 212.428 39.9058 222.763 45.5889 225.26L45.5841 225.27L57.6858 230.309L57.776 230.024L127.793 255.885ZM107.364 229.499L108.659 243.923C101.063 233.84 102.616 221.861 102.616 221.861C102.509 219.079 101.57 216.393 99.9216 214.15C108.647 219.371 107.364 229.499 107.364 229.499H107.364Z" fill="#3F3D56"/>
<path d="M301.728 823.252C300.072 823.252 298.584 822.964 297.264 822.388C295.968 821.788 294.948 820.972 294.204 819.94C293.46 818.884 293.076 817.672 293.052 816.304H296.544C296.664 817.48 297.144 818.476 297.984 819.292C298.848 820.084 300.096 820.48 301.728 820.48C303.288 820.48 304.512 820.096 305.4 819.328C306.312 818.536 306.768 817.528 306.768 816.304C306.768 815.344 306.504 814.564 305.976 813.964C305.448 813.364 304.788 812.908 303.996 812.596C303.204 812.284 302.136 811.948 300.792 811.588C299.136 811.156 297.804 810.724 296.796 810.292C295.812 809.86 294.96 809.188 294.24 808.276C293.544 807.34 293.196 806.092 293.196 804.532C293.196 803.164 293.544 801.952 294.24 800.896C294.936 799.84 295.908 799.024 297.156 798.448C298.428 797.872 299.88 797.584 301.512 797.584C303.864 797.584 305.784 798.172 307.272 799.348C308.784 800.524 309.636 802.084 309.828 804.028H306.228C306.108 803.068 305.604 802.228 304.716 801.508C303.828 800.764 302.652 800.392 301.188 800.392C299.82 800.392 298.704 800.752 297.84 801.472C296.976 802.168 296.544 803.152 296.544 804.424C296.544 805.336 296.796 806.08 297.3 806.656C297.828 807.232 298.464 807.676 299.208 807.988C299.976 808.276 301.044 808.612 302.412 808.996C304.068 809.452 305.4 809.908 306.408 810.364C307.416 810.796 308.28 811.48 309 812.416C309.72 813.328 310.08 814.576 310.08 816.16C310.08 817.384 309.756 818.536 309.108 819.616C308.46 820.696 307.5 821.572 306.228 822.244C304.956 822.916 303.456 823.252 301.728 823.252ZM318.897 805.972V817.6C318.897 818.56 319.101 819.244 319.509 819.652C319.917 820.036 320.625 820.228 321.633 820.228H324.045V823H321.093C319.269 823 317.901 822.58 316.989 821.74C316.077 820.9 315.621 819.52 315.621 817.6V805.972H313.065V803.272H315.621V798.304H318.897V803.272H324.045V805.972H318.897ZM326.79 813.064C326.79 811.048 327.198 809.284 328.014 807.772C328.83 806.236 329.946 805.048 331.362 804.208C332.802 803.368 334.398 802.948 336.15 802.948C337.878 802.948 339.378 803.32 340.65 804.064C341.922 804.808 342.87 805.744 343.494 806.872V803.272H346.806V823H343.494V819.328C342.846 820.48 341.874 821.44 340.578 822.208C339.306 822.952 337.818 823.324 336.114 823.324C334.362 823.324 332.778 822.892 331.362 822.028C329.946 821.164 328.83 819.952 328.014 818.392C327.198 816.832 326.79 815.056 326.79 813.064ZM343.494 813.1C343.494 811.612 343.194 810.316 342.594 809.212C341.994 808.108 341.178 807.268 340.146 806.692C339.138 806.092 338.022 805.792 336.798 805.792C335.574 805.792 334.458 806.08 333.45 806.656C332.442 807.232 331.638 808.072 331.038 809.176C330.438 810.28 330.138 811.576 330.138 813.064C330.138 814.576 330.438 815.896 331.038 817.024C331.638 818.128 332.442 818.98 333.45 819.58C334.458 820.156 335.574 820.444 336.798 820.444C338.022 820.444 339.138 820.156 340.146 819.58C341.178 818.98 341.994 818.128 342.594 817.024C343.194 815.896 343.494 814.588 343.494 813.1ZM355.618 806.476C356.194 805.348 357.01 804.472 358.066 803.848C359.146 803.224 360.454 802.912 361.99 802.912V806.296H361.126C357.454 806.296 355.618 808.288 355.618 812.272V823H352.342V803.272H355.618V806.476ZM369.768 805.972V817.6C369.768 818.56 369.972 819.244 370.38 819.652C370.788 820.036 371.496 820.228 372.504 820.228H374.916V823H371.964C370.14 823 368.772 822.58 367.86 821.74C366.948 820.9 366.492 819.52 366.492 817.6V805.972H363.936V803.272H366.492V798.304H369.768V803.272H374.916V805.972H369.768ZM395.467 823.324C393.955 823.324 392.599 823.072 391.399 822.568C390.199 822.04 389.251 821.32 388.555 820.408C387.859 819.472 387.475 818.404 387.403 817.204H390.787C390.883 818.188 391.339 818.992 392.155 819.616C392.995 820.24 394.087 820.552 395.431 820.552C396.679 820.552 397.663 820.276 398.383 819.724C399.103 819.172 399.463 818.476 399.463 817.636C399.463 816.772 399.079 816.136 398.311 815.728C397.543 815.296 396.355 814.876 394.747 814.468C393.283 814.084 392.083 813.7 391.147 813.316C390.235 812.908 389.443 812.32 388.771 811.552C388.123 810.76 387.799 809.728 387.799 808.456C387.799 807.448 388.099 806.524 388.699 805.684C389.299 804.844 390.151 804.184 391.255 803.704C392.359 803.2 393.619 802.948 395.035 802.948C397.219 802.948 398.983 803.5 400.327 804.604C401.671 805.708 402.391 807.22 402.487 809.14H399.211C399.139 808.108 398.719 807.28 397.951 806.656C397.207 806.032 396.199 805.72 394.927 805.72C393.751 805.72 392.815 805.972 392.119 806.476C391.423 806.98 391.075 807.64 391.075 808.456C391.075 809.104 391.279 809.644 391.687 810.076C392.119 810.484 392.647 810.82 393.271 811.084C393.919 811.324 394.807 811.6 395.935 811.912C397.351 812.296 398.503 812.68 399.391 813.064C400.279 813.424 401.035 813.976 401.659 814.72C402.307 815.464 402.643 816.436 402.667 817.636C402.667 818.716 402.367 819.688 401.767 820.552C401.167 821.416 400.315 822.1 399.211 822.604C398.131 823.084 396.883 823.324 395.467 823.324ZM425.292 812.38C425.292 813.004 425.256 813.664 425.184 814.36H409.416C409.536 816.304 410.196 817.828 411.396 818.932C412.62 820.012 414.096 820.552 415.824 820.552C417.24 820.552 418.416 820.228 419.352 819.58C420.312 818.908 420.984 818.02 421.368 816.916H424.896C424.368 818.812 423.312 820.36 421.728 821.56C420.144 822.736 418.176 823.324 415.824 823.324C413.952 823.324 412.272 822.904 410.784 822.064C409.32 821.224 408.168 820.036 407.328 818.5C406.488 816.94 406.068 815.14 406.068 813.1C406.068 811.06 406.476 809.272 407.292 807.736C408.108 806.2 409.248 805.024 410.712 804.208C412.2 803.368 413.904 802.948 415.824 802.948C417.696 802.948 419.352 803.356 420.792 804.172C422.232 804.988 423.336 806.116 424.104 807.556C424.896 808.972 425.292 810.58 425.292 812.38ZM421.908 811.696C421.908 810.448 421.632 809.38 421.08 808.492C420.528 807.58 419.772 806.896 418.812 806.44C417.876 805.96 416.832 805.72 415.68 805.72C414.024 805.72 412.608 806.248 411.432 807.304C410.28 808.36 409.62 809.824 409.452 811.696H421.908ZM428.392 813.064C428.392 811.048 428.8 809.284 429.616 807.772C430.432 806.236 431.548 805.048 432.964 804.208C434.404 803.368 436 802.948 437.752 802.948C439.48 802.948 440.98 803.32 442.252 804.064C443.524 804.808 444.472 805.744 445.096 806.872V803.272H448.408V823H445.096V819.328C444.448 820.48 443.476 821.44 442.18 822.208C440.908 822.952 439.42 823.324 437.716 823.324C435.964 823.324 434.38 822.892 432.964 822.028C431.548 821.164 430.432 819.952 429.616 818.392C428.8 816.832 428.392 815.056 428.392 813.064ZM445.096 813.1C445.096 811.612 444.796 810.316 444.196 809.212C443.596 808.108 442.78 807.268 441.748 806.692C440.74 806.092 439.624 805.792 438.4 805.792C437.176 805.792 436.06 806.08 435.052 806.656C434.044 807.232 433.24 808.072 432.64 809.176C432.04 810.28 431.74 811.576 431.74 813.064C431.74 814.576 432.04 815.896 432.64 817.024C433.24 818.128 434.044 818.98 435.052 819.58C436.06 820.156 437.176 820.444 438.4 820.444C439.624 820.444 440.74 820.156 441.748 819.58C442.78 818.98 443.596 818.128 444.196 817.024C444.796 815.896 445.096 814.588 445.096 813.1ZM457.22 806.476C457.796 805.348 458.612 804.472 459.668 803.848C460.748 803.224 462.056 802.912 463.592 802.912V806.296H462.728C459.056 806.296 457.22 808.288 457.22 812.272V823H453.944V803.272H457.22V806.476ZM466.15 813.1C466.15 811.06 466.558 809.284 467.374 807.772C468.19 806.236 469.318 805.048 470.758 804.208C472.222 803.368 473.89 802.948 475.762 802.948C478.186 802.948 480.178 803.536 481.738 804.712C483.322 805.888 484.366 807.52 484.87 809.608H481.342C481.006 808.408 480.346 807.46 479.362 806.764C478.402 806.068 477.202 805.72 475.762 805.72C473.89 805.72 472.378 806.368 471.226 807.664C470.074 808.936 469.498 810.748 469.498 813.1C469.498 815.476 470.074 817.312 471.226 818.608C472.378 819.904 473.89 820.552 475.762 820.552C477.202 820.552 478.402 820.216 479.362 819.544C480.322 818.872 480.982 817.912 481.342 816.664H484.87C484.342 818.68 483.286 820.3 481.702 821.524C480.118 822.724 478.138 823.324 475.762 823.324C473.89 823.324 472.222 822.904 470.758 822.064C469.318 821.224 468.19 820.036 467.374 818.5C466.558 816.964 466.15 815.164 466.15 813.1ZM499.033 802.912C500.521 802.912 501.865 803.236 503.065 803.884C504.265 804.508 505.201 805.456 505.873 806.728C506.569 808 506.917 809.548 506.917 811.372V823H503.677V811.84C503.677 809.872 503.185 808.372 502.201 807.34C501.217 806.284 499.873 805.756 498.169 805.756C496.441 805.756 495.061 806.296 494.029 807.376C493.021 808.456 492.517 810.028 492.517 812.092V823H489.241V796.36H492.517V806.08C493.165 805.072 494.053 804.292 495.181 803.74C496.333 803.188 497.617 802.912 499.033 802.912ZM513.96 800.068C513.336 800.068 512.808 799.852 512.376 799.42C511.944 798.988 511.728 798.46 511.728 797.836C511.728 797.212 511.944 796.684 512.376 796.252C512.808 795.82 513.336 795.604 513.96 795.604C514.56 795.604 515.064 795.82 515.472 796.252C515.904 796.684 516.12 797.212 516.12 797.836C516.12 798.46 515.904 798.988 515.472 799.42C515.064 799.852 514.56 800.068 513.96 800.068ZM515.544 803.272V823H512.268V803.272H515.544ZM530.739 802.912C533.139 802.912 535.083 803.644 536.571 805.108C538.059 806.548 538.803 808.636 538.803 811.372V823H535.563V811.84C535.563 809.872 535.071 808.372 534.087 807.34C533.103 806.284 531.759 805.756 530.055 805.756C528.327 805.756 526.947 806.296 525.915 807.376C524.907 808.456 524.403 810.028 524.403 812.092V823H521.127V803.272H524.403V806.08C525.051 805.072 525.927 804.292 527.031 803.74C528.159 803.188 529.395 802.912 530.739 802.912ZM552.291 802.948C553.995 802.948 555.483 803.32 556.755 804.064C558.051 804.808 559.011 805.744 559.635 806.872V803.272H562.947V823.432C562.947 825.232 562.563 826.828 561.795 828.22C561.027 829.636 559.923 830.74 558.483 831.532C557.067 832.324 555.411 832.72 553.515 832.72C550.923 832.72 548.763 832.108 547.035 830.884C545.307 829.66 544.287 827.992 543.975 825.88H547.215C547.575 827.08 548.319 828.04 549.447 828.76C550.575 829.504 551.931 829.876 553.515 829.876C555.315 829.876 556.779 829.312 557.907 828.184C559.059 827.056 559.635 825.472 559.635 823.432V819.292C558.987 820.444 558.027 821.404 556.755 822.172C555.483 822.94 553.995 823.324 552.291 823.324C550.539 823.324 548.943 822.892 547.503 822.028C546.087 821.164 544.971 819.952 544.155 818.392C543.339 816.832 542.931 815.056 542.931 813.064C542.931 811.048 543.339 809.284 544.155 807.772C544.971 806.236 546.087 805.048 547.503 804.208C548.943 803.368 550.539 802.948 552.291 802.948ZM559.635 813.1C559.635 811.612 559.335 810.316 558.735 809.212C558.135 808.108 557.319 807.268 556.287 806.692C555.279 806.092 554.163 805.792 552.939 805.792C551.715 805.792 550.599 806.08 549.591 806.656C548.583 807.232 547.779 808.072 547.179 809.176C546.579 810.28 546.279 811.576 546.279 813.064C546.279 814.576 546.579 815.896 547.179 817.024C547.779 818.128 548.583 818.98 549.591 819.58C550.599 820.156 551.715 820.444 552.939 820.444C554.163 820.444 555.279 820.156 556.287 819.58C557.319 818.98 558.135 818.128 558.735 817.024C559.335 815.896 559.635 814.588 559.635 813.1ZM569.527 823.216C568.903 823.216 568.375 823 567.943 822.568C567.511 822.136 567.295 821.608 567.295 820.984C567.295 820.36 567.511 819.832 567.943 819.4C568.375 818.968 568.903 818.752 569.527 818.752C570.127 818.752 570.631 818.968 571.039 819.4C571.471 819.832 571.687 820.36 571.687 820.984C571.687 821.608 571.471 822.136 571.039 822.568C570.631 823 570.127 823.216 569.527 823.216ZM577.086 823.216C576.462 823.216 575.934 823 575.502 822.568C575.07 822.136 574.854 821.608 574.854 820.984C574.854 820.36 575.07 819.832 575.502 819.4C575.934 818.968 576.462 818.752 577.086 818.752C577.686 818.752 578.19 818.968 578.598 819.4C579.03 819.832 579.246 820.36 579.246 820.984C579.246 821.608 579.03 822.136 578.598 822.568C578.19 823 577.686 823.216 577.086 823.216ZM584.644 823.216C584.02 823.216 583.492 823 583.06 822.568C582.628 822.136 582.412 821.608 582.412 820.984C582.412 820.36 582.628 819.832 583.06 819.4C583.492 818.968 584.02 818.752 584.644 818.752C585.244 818.752 585.748 818.968 586.156 819.4C586.588 819.832 586.804 820.36 586.804 820.984C586.804 821.608 586.588 822.136 586.156 822.568C585.748 823 585.244 823.216 584.644 823.216Z" fill="#3F3D56"/>
</svg>
