<svg width="398" height="70" viewBox="0 0 398 70" fill="none" xmlns="http://www.w3.org/2000/svg">
<rect y="30" width="6" height="10" rx="3" fill="#E4757D"/>
<rect x="14" y="13" width="6" height="44" rx="3" fill="#E4757D"/>
<rect x="42" y="6" width="6" height="58" rx="3" fill="#E4757D"/>
<rect x="56" y="23" width="6" height="24" rx="3" fill="#E4757D"/>
<rect x="70" y="29" width="6" height="12" rx="3" fill="#E4757D"/>
<rect x="84" y="33" width="6" height="5" rx="2.5" fill="#E4757D"/>
<rect x="98" y="23" width="6" height="24" rx="3" fill="#E4757D"/>
<rect x="112" y="4" width="6" height="63" rx="3" fill="#E4757D"/>
<rect x="126" y="19" width="6" height="32" rx="3" fill="#E4757D"/>
<rect x="28" y="23" width="6" height="24" rx="3" fill="#E4757D"/>
<rect x="140" y="2" width="6" height="68" rx="3" fill="#E4757D"/>
<rect x="154" y="26" width="6" height="20" rx="3" fill="#E4757D"/>
<rect x="182" y="12" width="6" height="44" rx="3" fill="#EF757D" fill-opacity="0.32"/>
<rect x="196" y="20" width="6" height="28" rx="3" fill="#EF757D" fill-opacity="0.32"/>
<rect x="210" y="28" width="6" height="12" rx="3" fill="#EF757D" fill-opacity="0.32"/>
<rect x="224" y="17" width="6" height="32" rx="3" fill="#EF757D" fill-opacity="0.32"/>
<rect x="238" y="12" width="6" height="45" rx="3" fill="#EF757D" fill-opacity="0.32"/>
<rect x="252" y="23" width="6" height="23" rx="3" fill="#EF757D" fill-opacity="0.32"/>
<rect x="266" y="31" width="6" height="6" rx="3" fill="#EF757D" fill-opacity="0.32"/>
<rect x="168" y="1" width="6" height="69" rx="3" fill="#EF757D" fill-opacity="0.32"/>
<rect x="280" y="20" width="6" height="26" rx="3" fill="#EF757D" fill-opacity="0.32"/>
<rect x="294" y="11" width="6" height="44" rx="3" fill="#EF757D" fill-opacity="0.32"/>
<rect x="322" y="24" width="6" height="20" rx="3" fill="#EF757D" fill-opacity="0.32"/>
<rect x="336" y="19" width="6" height="28" rx="3" fill="#EF757D" fill-opacity="0.32"/>
<rect x="350" y="27" width="6" height="12" rx="3" fill="#EF757D" fill-opacity="0.32"/>
<rect x="364" y="17" width="6" height="32" rx="3" fill="#EF757D" fill-opacity="0.32"/>
<rect x="378" y="20" width="6" height="26" rx="3" fill="#EF757D" fill-opacity="0.32"/>
<rect x="392" y="27" width="6" height="13" rx="3" fill="#EF757D" fill-opacity="0.32"/>
<rect x="308" width="6" height="69" rx="3" fill="#EF757D" fill-opacity="0.32"/>
</svg>
